<svg id="レイヤー_1" data-name="レイヤー 1" xmlns="http://www.w3.org/2000/svg" xmlns:xlink="http://www.w3.org/1999/xlink" viewBox="0 0 508.22 141.07">
  <defs>
    <style>.cls-1{fill:url(#名称未設定グラデーション_61);}</style>
    <linearGradient id="名称未設定グラデーション_61" x1="319.77" y1="185.09" x2="195.28" y2="-30.53" gradientUnits="userSpaceOnUse">
      <stop offset="0" stop-color="#3781e2"/>
      <stop offset="1" stop-color="#50b9ca"/>
    </linearGradient>
  </defs>
  <title>nodi-logo-gra</title>
  <path class="cls-1" d="M234.13,61.37q5.69,5.58,5.69,14.86v33.29H224.44V78.12a8.34,8.34,0,0,0-2.74-6.48,10.13,10.13,0,0,0-7.06-2.47A10.92,10.92,0,0,0,207,72a9.09,9.09,0,0,0-3.11,7v30.55H188.51V56.84h13.8l.84,6.11a20.84,20.84,0,0,1,16-7.16Q228.44,55.79,234.13,61.37Zm40.78,41.3a26.69,26.69,0,0,1-7.79-19.49,26.69,26.69,0,0,1,7.79-19.49q7.8-7.9,19.71-7.9a26.91,26.91,0,0,1,27.5,27.39,26.91,26.91,0,0,1-27.5,27.39Q282.71,110.57,274.91,102.67Zm28.56-9.59a14.6,14.6,0,0,0,3.47-9.9,14.83,14.83,0,0,0-3.47-10,11.81,11.81,0,0,0-17.76,0,14.88,14.88,0,0,0-3.42,10,14.7,14.7,0,0,0,3.42,10,11.9,11.9,0,0,0,17.76-.06ZM400.41,30.5v79l-13.59.1-.85-5.47a20,20,0,0,1-15.06,6.42,22.27,22.27,0,0,1-17.6-7.85q-6.84-7.84-6.85-19.54t6.85-19.54a22.27,22.27,0,0,1,17.6-7.85,19.86,19.86,0,0,1,14.33,5.69v-31ZM380.76,94.82a13.61,13.61,0,0,0,4.48-6.06V77.6a13.88,13.88,0,0,0-4.53-6.12A11,11,0,0,0,374,69.17a11.15,11.15,0,0,0-8.9,4,14.88,14.88,0,0,0-3.42,10,14.7,14.7,0,0,0,3.42,10,11.23,11.23,0,0,0,8.9,4A11,11,0,0,0,380.76,94.82Zm56.16-49.57a8.52,8.52,0,0,1,0-12.22A8.36,8.36,0,0,1,443,30.5,8.5,8.5,0,0,1,449.14,33a8.52,8.52,0,0,1,0,12.22A8.5,8.5,0,0,1,443,47.78,8.36,8.36,0,0,1,436.92,45.25Zm-1.64,11.59h15.39v52.68H435.28Zm-294,19.37-6.06,28a6.3,6.3,0,0,1-6.3,6.3H103.43c.08-5.09-.27-10.85-5.35-17.86-5.61-7.75-11.57-9.54-16.82-11.12C76.61,80.17,72.6,79,68.55,73.37A18.5,18.5,0,0,1,65,65.11L69.1,46a6.3,6.3,0,0,1,6.3-6.3h25.76c.38,5,1.28,10.67,6.9,17.12,6.28,7.22,12.37,8.47,17.75,9.57,4.75,1,8.85,1.82,13.38,7A24.07,24.07,0,0,1,141.32,76.21ZM114,51.61c4.53,5.21,8.63,6,13.39,7s10.37,2.14,16,7.77L147.86,46a6.3,6.3,0,0,0-6.3-6.3h-32.5A18.78,18.78,0,0,0,114,51.61ZM91.7,97.3c-4-5.6-8.06-6.8-12.7-8.19C73.74,87.53,67.79,85.75,62.17,78L56.5,104.24a6.3,6.3,0,0,0,6.3,6.3H95.55C95.63,106.26,95.36,102.35,91.7,97.3Z"/>
</svg>