<svg id="レイヤー_1" data-name="レイヤー 1" xmlns="http://www.w3.org/2000/svg" viewBox="0 0 208.72 161.84">
  <defs>
    <style>
      .cls-blue{fill:#3781e2;}
    </style>
  </defs>
  <title>256x256</title><path class="cls-blue" d="M217,130.63l-13.85,64A14.4,14.4,0,0,1,188.73,209H130.49c.19-11.63-.61-24.79-12.22-40.81-12.81-17.7-26.43-21.79-38.43-25.4-10.62-3.11-19.78-5.78-29-18.64a42.21,42.21,0,0,1-8.11-18.87l9.36-43.66a14.4,14.4,0,0,1,14.4-14.4h58.85c.87,11.43,2.92,24.38,15.76,39.12,14.35,16.49,28.26,19.35,40.55,21.86,10.86,2.29,20.22,4.16,30.57,16a54.51,54.51,0,0,1,4.87,6.45Z" transform="translate(-23.28 -47.21)"/><path class="cls-blue" d="M154.64,74.42c10.35,11.91,19.72,13.71,30.59,16s23.7,4.89,36.56,17.75L232,61.61a14.4,14.4,0,0,0-14.39-14.4H143.36A42.9,42.9,0,0,0,154.64,74.42Z" transform="translate(-23.28 -47.21)"/><path class="cls-blue" d="M103.7,178.81c-9.14-12.8-18.42-15.54-29-18.71-12-3.61-25.61-7.68-38.45-25.38L23.28,194.66a14.4,14.4,0,0,0,14.39,14.4h74.82C112.67,199.28,112.06,190.35,103.7,178.81Z" transform="translate(-23.28 -47.21)"/>
</svg>