<svg id="レイヤー_1" data-name="レイヤー 1" xmlns="http://www.w3.org/2000/svg" viewBox="0 0 91.36 70.84">
  <title>03_nodi-logo-white-icon-only</title>
  <path d="M141.28,76.21l-6.06,28a6.3,6.3,0,0,1-6.3,6.3H103.43c.08-5.09-.27-10.85-5.35-17.86-5.61-7.75-11.57-9.54-16.82-11.12C76.61,80.17,72.6,79,68.55,73.37A18.50007,18.50007,0,0,1,65,65.11L69.1,46a6.3,6.3,0,0,1,6.3-6.3h25.76c.38,5,1.28,10.67,6.9,17.12,6.28,7.22,12.37,8.47,17.75,9.57,4.75,1,8.85,1.82,13.38,7a24.07046,24.07046,0,0,1,2.13,2.82Z" transform="translate(-56.5 -39.7)" style="fill: #fff"/>
  <path d="M114,51.61c4.53,5.21,8.63,6,13.39,7s10.37,2.14,16,7.77L147.86,46a6.3,6.3,0,0,0-6.3-6.3h-32.5A18.77991,18.77991,0,0,0,114,51.61Z" transform="translate(-56.5 -39.7)" style="fill: #fff"/>
  <path d="M91.7,97.3c-4-5.6-8.06-6.8-12.7-8.19C73.74,87.53,67.79,85.75,62.17,78L56.5,104.24a6.3,6.3,0,0,0,6.3,6.3H95.55C95.63,106.26,95.36,102.35,91.7,97.3Z" transform="translate(-56.5 -39.7)" style="fill: #fff"/>
</svg>
